<mxfile host="Electron" modified="2024-05-23T13:28:06.538Z" agent="Mozilla/5.0 (Windows NT 10.0; Win64; x64) AppleWebKit/537.36 (KHTML, like Gecko) draw.io/24.4.0 Chrome/120.0.6099.109 Electron/28.1.0 Safari/537.36" etag="Ya9SOHCwBkZBoNdP_oKE" version="24.4.0" type="device">
  <diagram name="Страница — 1" id="3XFxWbQeZkJvydi4CjY2">
    <mxGraphModel dx="1434" dy="844" grid="1" gridSize="10" guides="1" tooltips="1" connect="1" arrows="1" fold="1" page="1" pageScale="1" pageWidth="827" pageHeight="1169" math="0" shadow="0">
      <root>
        <mxCell id="0" />
        <mxCell id="1" parent="0" />
        <mxCell id="PY4G7l2K5pVL9X38_ox1-4" value="" style="endArrow=classic;html=1;rounded=0;exitX=0.5;exitY=1;exitDx=0;exitDy=0;exitPerimeter=0;entryX=0.5;entryY=0;entryDx=0;entryDy=0;" edge="1" parent="1" source="PY4G7l2K5pVL9X38_ox1-1" target="PY4G7l2K5pVL9X38_ox1-5">
          <mxGeometry width="50" height="50" relative="1" as="geometry">
            <mxPoint x="390" y="210" as="sourcePoint" />
            <mxPoint x="400" y="240" as="targetPoint" />
          </mxGeometry>
        </mxCell>
        <mxCell id="PY4G7l2K5pVL9X38_ox1-5" value="Сообщение пользователю как работает бот" style="rounded=0;whiteSpace=wrap;html=1;" vertex="1" parent="1">
          <mxGeometry x="280" y="170" width="240" height="50" as="geometry" />
        </mxCell>
        <mxCell id="PY4G7l2K5pVL9X38_ox1-8" value="" style="endArrow=classic;html=1;rounded=0;exitX=0.5;exitY=1;exitDx=0;exitDy=0;entryX=0.5;entryY=0;entryDx=0;entryDy=0;" edge="1" parent="1" source="PY4G7l2K5pVL9X38_ox1-5" target="PY4G7l2K5pVL9X38_ox1-56">
          <mxGeometry width="50" height="50" relative="1" as="geometry">
            <mxPoint x="390" y="210" as="sourcePoint" />
            <mxPoint x="400" y="280" as="targetPoint" />
          </mxGeometry>
        </mxCell>
        <mxCell id="PY4G7l2K5pVL9X38_ox1-9" value="" style="endArrow=classic;html=1;rounded=0;exitX=0;exitY=0.5;exitDx=0;exitDy=0;entryX=0.5;entryY=0;entryDx=0;entryDy=0;" edge="1" parent="1" source="PY4G7l2K5pVL9X38_ox1-56" target="PY4G7l2K5pVL9X38_ox1-19">
          <mxGeometry width="50" height="50" relative="1" as="geometry">
            <mxPoint x="305" y="350" as="sourcePoint" />
            <mxPoint x="120" y="350" as="targetPoint" />
            <Array as="points">
              <mxPoint x="135" y="350" />
            </Array>
          </mxGeometry>
        </mxCell>
        <mxCell id="PY4G7l2K5pVL9X38_ox1-17" value="Просмотр" style="edgeLabel;html=1;align=center;verticalAlign=middle;resizable=0;points=[];" vertex="1" connectable="0" parent="PY4G7l2K5pVL9X38_ox1-9">
          <mxGeometry x="0.027" y="-1" relative="1" as="geometry">
            <mxPoint x="46" y="1" as="offset" />
          </mxGeometry>
        </mxCell>
        <mxCell id="PY4G7l2K5pVL9X38_ox1-10" value="" style="endArrow=classic;html=1;rounded=0;exitX=1;exitY=0.5;exitDx=0;exitDy=0;entryX=0.5;entryY=0;entryDx=0;entryDy=0;" edge="1" parent="1" source="PY4G7l2K5pVL9X38_ox1-56" target="PY4G7l2K5pVL9X38_ox1-63">
          <mxGeometry width="50" height="50" relative="1" as="geometry">
            <mxPoint x="495" y="350" as="sourcePoint" />
            <mxPoint x="680" y="400" as="targetPoint" />
            <Array as="points">
              <mxPoint x="730" y="350" />
            </Array>
          </mxGeometry>
        </mxCell>
        <mxCell id="PY4G7l2K5pVL9X38_ox1-18" value="Создание" style="edgeLabel;html=1;align=center;verticalAlign=middle;resizable=0;points=[];" vertex="1" connectable="0" parent="PY4G7l2K5pVL9X38_ox1-10">
          <mxGeometry x="-0.2242" y="1" relative="1" as="geometry">
            <mxPoint as="offset" />
          </mxGeometry>
        </mxCell>
        <mxCell id="PY4G7l2K5pVL9X38_ox1-37" value="" style="group" vertex="1" connectable="0" parent="1">
          <mxGeometry x="20" y="440" width="230" height="140" as="geometry" />
        </mxCell>
        <mxCell id="PY4G7l2K5pVL9X38_ox1-19" value="Выгружаем в виде кнопок названия альбомов." style="rounded=0;whiteSpace=wrap;html=1;" vertex="1" parent="PY4G7l2K5pVL9X38_ox1-37">
          <mxGeometry width="230" height="50" as="geometry" />
        </mxCell>
        <mxCell id="PY4G7l2K5pVL9X38_ox1-36" value="" style="group" vertex="1" connectable="0" parent="PY4G7l2K5pVL9X38_ox1-37">
          <mxGeometry y="50" width="230" height="90" as="geometry" />
        </mxCell>
        <mxCell id="PY4G7l2K5pVL9X38_ox1-29" value="" style="strokeWidth=1;html=1;shadow=0;dashed=0;shape=mxgraph.android.rect;rounded=1;fillColor=#ccf2ff;strokeColor=#88c5f5;container=0;" vertex="1" parent="PY4G7l2K5pVL9X38_ox1-36">
          <mxGeometry y="30" width="230" height="30" as="geometry" />
        </mxCell>
        <mxCell id="PY4G7l2K5pVL9X38_ox1-27" value="" style="strokeWidth=1;html=1;shadow=0;dashed=0;shape=mxgraph.android.rect;rounded=1;fillColor=#ccf2ff;strokeColor=#88c5f5;container=0;" vertex="1" parent="PY4G7l2K5pVL9X38_ox1-36">
          <mxGeometry y="60" width="230" height="30" as="geometry" />
        </mxCell>
        <mxCell id="PY4G7l2K5pVL9X38_ox1-31" value="" style="strokeWidth=1;html=1;shadow=0;dashed=0;shape=mxgraph.android.rect;rounded=1;fillColor=#ccf2ff;strokeColor=#88c5f5;container=0;" vertex="1" parent="PY4G7l2K5pVL9X38_ox1-36">
          <mxGeometry width="230" height="30" as="geometry" />
        </mxCell>
        <mxCell id="PY4G7l2K5pVL9X38_ox1-32" value="Читерский четверг" style="strokeWidth=1;html=1;shadow=0;dashed=0;shape=mxgraph.android.spinner2;fontStyle=0;fontColor=#666666;align=center;verticalAlign=middle;strokeColor=#cccccc;fillColor=#cccccc;" vertex="1" parent="PY4G7l2K5pVL9X38_ox1-36">
          <mxGeometry x="5.897435897435897" y="4.285714285714286" width="216.23931623931622" height="21.428571428571427" as="geometry" />
        </mxCell>
        <mxCell id="PY4G7l2K5pVL9X38_ox1-30" value="Поездка на каму" style="strokeWidth=1;html=1;shadow=0;dashed=0;shape=mxgraph.android.spinner2;fontStyle=0;fontColor=#666666;align=center;verticalAlign=middle;strokeColor=#cccccc;fillColor=#cccccc;" vertex="1" parent="PY4G7l2K5pVL9X38_ox1-36">
          <mxGeometry x="5.897435897435897" y="34.285714285714285" width="216.23931623931622" height="21.428571428571427" as="geometry" />
        </mxCell>
        <mxCell id="PY4G7l2K5pVL9X38_ox1-28" value="Рыбалка 2019" style="strokeWidth=1;html=1;shadow=0;dashed=0;shape=mxgraph.android.spinner2;fontStyle=0;fontColor=#666666;align=center;verticalAlign=middle;strokeColor=#cccccc;fillColor=#cccccc;" vertex="1" parent="PY4G7l2K5pVL9X38_ox1-36">
          <mxGeometry x="5.897435897435897" y="64.28571428571429" width="216.23931623931622" height="21.428571428571427" as="geometry" />
        </mxCell>
        <mxCell id="PY4G7l2K5pVL9X38_ox1-38" value="" style="endArrow=classic;html=1;rounded=0;exitX=0.5;exitY=1;exitDx=0;exitDy=0;entryX=0.489;entryY=0;entryDx=0;entryDy=0;entryPerimeter=0;" edge="1" parent="1" source="PY4G7l2K5pVL9X38_ox1-27" target="PY4G7l2K5pVL9X38_ox1-40">
          <mxGeometry width="50" height="50" relative="1" as="geometry">
            <mxPoint x="390" y="410" as="sourcePoint" />
            <mxPoint x="135" y="620" as="targetPoint" />
          </mxGeometry>
        </mxCell>
        <mxCell id="PY4G7l2K5pVL9X38_ox1-50" value="Чтение" style="edgeLabel;html=1;align=center;verticalAlign=middle;resizable=0;points=[];" vertex="1" connectable="0" parent="PY4G7l2K5pVL9X38_ox1-38">
          <mxGeometry x="-0.3194" y="-1" relative="1" as="geometry">
            <mxPoint as="offset" />
          </mxGeometry>
        </mxCell>
        <mxCell id="PY4G7l2K5pVL9X38_ox1-40" value="" style="image;aspect=fixed;html=1;points=[];align=center;fontSize=12;image=img/lib/azure2/databases/Azure_Database_PostgreSQL_Server.svg;" vertex="1" parent="1">
          <mxGeometry x="80" y="630" width="110" height="146.67" as="geometry" />
        </mxCell>
        <mxCell id="PY4G7l2K5pVL9X38_ox1-41" value="" style="endArrow=classic;html=1;rounded=0;exitX=0.473;exitY=1.002;exitDx=0;exitDy=0;exitPerimeter=0;entryX=0.466;entryY=0;entryDx=0;entryDy=0;entryPerimeter=0;" edge="1" parent="1" source="PY4G7l2K5pVL9X38_ox1-40" target="PY4G7l2K5pVL9X38_ox1-43">
          <mxGeometry width="50" height="50" relative="1" as="geometry">
            <mxPoint x="390" y="710" as="sourcePoint" />
            <mxPoint x="132" y="830" as="targetPoint" />
          </mxGeometry>
        </mxCell>
        <mxCell id="PY4G7l2K5pVL9X38_ox1-49" value="" style="group" vertex="1" connectable="0" parent="1">
          <mxGeometry x="64.5" y="830" width="145.5" height="98" as="geometry" />
        </mxCell>
        <mxCell id="PY4G7l2K5pVL9X38_ox1-46" value="" style="group" vertex="1" connectable="0" parent="PY4G7l2K5pVL9X38_ox1-49">
          <mxGeometry width="145.5" height="68" as="geometry" />
        </mxCell>
        <mxCell id="PY4G7l2K5pVL9X38_ox1-43" value="Выгрузка фоток и видео по 10 шт" style="rounded=0;whiteSpace=wrap;html=1;" vertex="1" parent="PY4G7l2K5pVL9X38_ox1-46">
          <mxGeometry width="145" height="40" as="geometry" />
        </mxCell>
        <mxCell id="PY4G7l2K5pVL9X38_ox1-44" value="" style="strokeWidth=1;html=1;shadow=0;dashed=0;shape=mxgraph.android.rect;rounded=1;fillColor=#33b5e5;strokeColor=#33b5e5;" vertex="1" parent="PY4G7l2K5pVL9X38_ox1-46">
          <mxGeometry y="40" width="145.5" height="28" as="geometry" />
        </mxCell>
        <mxCell id="PY4G7l2K5pVL9X38_ox1-45" value="Еще" style="strokeWidth=1;html=1;shadow=0;dashed=0;shape=mxgraph.android.spinner2;fontStyle=0;fontColor=#ffffff;align=center;verticalAlign=middle;strokeColor=#666666;fillColor=#666666;" vertex="1" parent="PY4G7l2K5pVL9X38_ox1-44">
          <mxGeometry x="3.730769230769231" y="4" width="136.7948717948718" height="20" as="geometry" />
        </mxCell>
        <mxCell id="PY4G7l2K5pVL9X38_ox1-47" value="" style="strokeWidth=1;html=1;shadow=0;dashed=0;shape=mxgraph.android.rect;rounded=1;fillColor=#33b5e5;strokeColor=#33b5e5;" vertex="1" parent="PY4G7l2K5pVL9X38_ox1-49">
          <mxGeometry y="70" width="145.5" height="28" as="geometry" />
        </mxCell>
        <mxCell id="PY4G7l2K5pVL9X38_ox1-48" value="Основное меню" style="strokeWidth=1;html=1;shadow=0;dashed=0;shape=mxgraph.android.spinner2;fontStyle=0;fontColor=#ffffff;align=center;verticalAlign=middle;strokeColor=#666666;fillColor=#666666;" vertex="1" parent="PY4G7l2K5pVL9X38_ox1-47">
          <mxGeometry x="3.730769230769231" y="4" width="136.7948717948718" height="20" as="geometry" />
        </mxCell>
        <mxCell id="PY4G7l2K5pVL9X38_ox1-57" value="" style="group" vertex="1" connectable="0" parent="1">
          <mxGeometry x="285" y="260" width="230" height="180" as="geometry" />
        </mxCell>
        <mxCell id="PY4G7l2K5pVL9X38_ox1-56" value="" style="rhombus;whiteSpace=wrap;html=1;" vertex="1" parent="PY4G7l2K5pVL9X38_ox1-57">
          <mxGeometry width="230" height="180" as="geometry" />
        </mxCell>
        <mxCell id="PY4G7l2K5pVL9X38_ox1-55" value="" style="group" vertex="1" connectable="0" parent="PY4G7l2K5pVL9X38_ox1-57">
          <mxGeometry x="40" y="60" width="147" height="58" as="geometry" />
        </mxCell>
        <mxCell id="PY4G7l2K5pVL9X38_ox1-51" value="" style="strokeWidth=1;html=1;shadow=0;dashed=0;shape=mxgraph.android.rect;rounded=1;fillColor=#33b5e5;strokeColor=#33b5e5;" vertex="1" parent="PY4G7l2K5pVL9X38_ox1-55">
          <mxGeometry width="147" height="28" as="geometry" />
        </mxCell>
        <mxCell id="PY4G7l2K5pVL9X38_ox1-52" value="Просмотр альбомов" style="strokeWidth=1;html=1;shadow=0;dashed=0;shape=mxgraph.android.spinner2;fontStyle=0;fontColor=#ffffff;align=center;verticalAlign=middle;strokeColor=#666666;fillColor=#666666;" vertex="1" parent="PY4G7l2K5pVL9X38_ox1-51">
          <mxGeometry x="3.769230769230769" y="4" width="138.2051282051282" height="20" as="geometry" />
        </mxCell>
        <mxCell id="PY4G7l2K5pVL9X38_ox1-53" value="" style="strokeWidth=1;html=1;shadow=0;dashed=0;shape=mxgraph.android.rect;rounded=1;fillColor=#33b5e5;strokeColor=#33b5e5;" vertex="1" parent="PY4G7l2K5pVL9X38_ox1-55">
          <mxGeometry y="30" width="147" height="28" as="geometry" />
        </mxCell>
        <mxCell id="PY4G7l2K5pVL9X38_ox1-54" value="Создание альбомов" style="strokeWidth=1;html=1;shadow=0;dashed=0;shape=mxgraph.android.spinner2;fontStyle=0;fontColor=#ffffff;align=center;verticalAlign=middle;strokeColor=#666666;fillColor=#666666;" vertex="1" parent="PY4G7l2K5pVL9X38_ox1-53">
          <mxGeometry x="3.769230769230769" y="4" width="138.2051282051282" height="20" as="geometry" />
        </mxCell>
        <mxCell id="PY4G7l2K5pVL9X38_ox1-64" value="" style="group" vertex="1" connectable="0" parent="1">
          <mxGeometry x="610" y="420" width="240" height="160" as="geometry" />
        </mxCell>
        <mxCell id="PY4G7l2K5pVL9X38_ox1-63" value="" style="rhombus;whiteSpace=wrap;html=1;" vertex="1" parent="PY4G7l2K5pVL9X38_ox1-64">
          <mxGeometry width="240" height="160" as="geometry" />
        </mxCell>
        <mxCell id="PY4G7l2K5pVL9X38_ox1-62" value="" style="group" vertex="1" connectable="0" parent="PY4G7l2K5pVL9X38_ox1-64">
          <mxGeometry x="60" y="50" width="117" height="61" as="geometry" />
        </mxCell>
        <mxCell id="PY4G7l2K5pVL9X38_ox1-58" value="" style="strokeWidth=1;html=1;shadow=0;dashed=0;shape=mxgraph.android.rect;rounded=1;fillColor=#33b5e5;strokeColor=#33b5e5;" vertex="1" parent="PY4G7l2K5pVL9X38_ox1-62">
          <mxGeometry width="117" height="28" as="geometry" />
        </mxCell>
        <mxCell id="PY4G7l2K5pVL9X38_ox1-59" value="Новый альбом" style="strokeWidth=1;html=1;shadow=0;dashed=0;shape=mxgraph.android.spinner2;fontStyle=0;fontColor=#ffffff;align=center;verticalAlign=middle;strokeColor=#666666;fillColor=#666666;" vertex="1" parent="PY4G7l2K5pVL9X38_ox1-58">
          <mxGeometry x="3" y="4" width="110" height="20" as="geometry" />
        </mxCell>
        <mxCell id="PY4G7l2K5pVL9X38_ox1-60" value="" style="strokeWidth=1;html=1;shadow=0;dashed=0;shape=mxgraph.android.rect;rounded=1;fillColor=#33b5e5;strokeColor=#33b5e5;" vertex="1" parent="PY4G7l2K5pVL9X38_ox1-62">
          <mxGeometry y="33" width="117" height="28" as="geometry" />
        </mxCell>
        <mxCell id="PY4G7l2K5pVL9X38_ox1-61" value="Подальбом" style="strokeWidth=1;html=1;shadow=0;dashed=0;shape=mxgraph.android.spinner2;fontStyle=0;fontColor=#ffffff;align=center;verticalAlign=middle;strokeColor=#666666;fillColor=#666666;" vertex="1" parent="PY4G7l2K5pVL9X38_ox1-60">
          <mxGeometry x="3" y="4" width="110" height="20" as="geometry" />
        </mxCell>
        <mxCell id="PY4G7l2K5pVL9X38_ox1-65" value="" style="endArrow=classic;html=1;rounded=0;exitX=0;exitY=0.5;exitDx=0;exitDy=0;entryX=0.5;entryY=0;entryDx=0;entryDy=0;" edge="1" parent="1" source="PY4G7l2K5pVL9X38_ox1-63" target="PY4G7l2K5pVL9X38_ox1-67">
          <mxGeometry width="50" height="50" relative="1" as="geometry">
            <mxPoint x="390" y="610" as="sourcePoint" />
            <mxPoint x="490" y="500" as="targetPoint" />
            <Array as="points">
              <mxPoint x="490" y="500" />
            </Array>
          </mxGeometry>
        </mxCell>
        <mxCell id="PY4G7l2K5pVL9X38_ox1-68" value="Новый" style="edgeLabel;html=1;align=center;verticalAlign=middle;resizable=0;points=[];" vertex="1" connectable="0" parent="PY4G7l2K5pVL9X38_ox1-65">
          <mxGeometry x="0.15" y="1" relative="1" as="geometry">
            <mxPoint x="55" y="-1" as="offset" />
          </mxGeometry>
        </mxCell>
        <mxCell id="PY4G7l2K5pVL9X38_ox1-66" value="" style="endArrow=classic;html=1;rounded=0;exitX=1;exitY=0.5;exitDx=0;exitDy=0;entryX=0.5;entryY=0;entryDx=0;entryDy=0;" edge="1" parent="1" source="PY4G7l2K5pVL9X38_ox1-63" target="PY4G7l2K5pVL9X38_ox1-79">
          <mxGeometry width="50" height="50" relative="1" as="geometry">
            <mxPoint x="390" y="610" as="sourcePoint" />
            <mxPoint x="1000" y="500" as="targetPoint" />
            <Array as="points">
              <mxPoint x="970" y="500" />
            </Array>
          </mxGeometry>
        </mxCell>
        <mxCell id="PY4G7l2K5pVL9X38_ox1-69" value="Подальбом" style="edgeLabel;html=1;align=center;verticalAlign=middle;resizable=0;points=[];" vertex="1" connectable="0" parent="PY4G7l2K5pVL9X38_ox1-66">
          <mxGeometry x="-0.1067" relative="1" as="geometry">
            <mxPoint x="-33" as="offset" />
          </mxGeometry>
        </mxCell>
        <mxCell id="PY4G7l2K5pVL9X38_ox1-67" value="Введите название&lt;div&gt;альбома&lt;/div&gt;" style="rounded=0;whiteSpace=wrap;html=1;" vertex="1" parent="1">
          <mxGeometry x="430" y="580" width="120" height="60" as="geometry" />
        </mxCell>
        <mxCell id="PY4G7l2K5pVL9X38_ox1-70" value="" style="image;aspect=fixed;html=1;points=[];align=center;fontSize=12;image=img/lib/azure2/databases/Azure_Database_PostgreSQL_Server.svg;" vertex="1" parent="1">
          <mxGeometry x="460" y="680" width="60" height="80" as="geometry" />
        </mxCell>
        <mxCell id="PY4G7l2K5pVL9X38_ox1-71" value="" style="endArrow=classic;html=1;rounded=0;exitX=0.5;exitY=1;exitDx=0;exitDy=0;entryX=0.5;entryY=0;entryDx=0;entryDy=0;entryPerimeter=0;" edge="1" parent="1" source="PY4G7l2K5pVL9X38_ox1-67" target="PY4G7l2K5pVL9X38_ox1-70">
          <mxGeometry width="50" height="50" relative="1" as="geometry">
            <mxPoint x="390" y="610" as="sourcePoint" />
            <mxPoint x="490" y="680" as="targetPoint" />
          </mxGeometry>
        </mxCell>
        <mxCell id="PY4G7l2K5pVL9X38_ox1-72" value="Добавьте медиафайлы" style="rounded=0;whiteSpace=wrap;html=1;" vertex="1" parent="1">
          <mxGeometry x="429" y="790" width="120" height="50" as="geometry" />
        </mxCell>
        <mxCell id="PY4G7l2K5pVL9X38_ox1-73" value="" style="endArrow=classic;html=1;rounded=0;exitX=0.483;exitY=1.013;exitDx=0;exitDy=0;exitPerimeter=0;entryX=0.5;entryY=0;entryDx=0;entryDy=0;" edge="1" parent="1" source="PY4G7l2K5pVL9X38_ox1-70" target="PY4G7l2K5pVL9X38_ox1-72">
          <mxGeometry width="50" height="50" relative="1" as="geometry">
            <mxPoint x="490" y="780" as="sourcePoint" />
            <mxPoint x="490" y="840" as="targetPoint" />
          </mxGeometry>
        </mxCell>
        <mxCell id="PY4G7l2K5pVL9X38_ox1-74" value="" style="endArrow=classic;html=1;rounded=0;exitX=0.5;exitY=1;exitDx=0;exitDy=0;entryX=0.5;entryY=0;entryDx=0;entryDy=0;entryPerimeter=0;" edge="1" parent="1" source="PY4G7l2K5pVL9X38_ox1-72" target="PY4G7l2K5pVL9X38_ox1-75">
          <mxGeometry width="50" height="50" relative="1" as="geometry">
            <mxPoint x="390" y="610" as="sourcePoint" />
            <mxPoint x="489" y="880" as="targetPoint" />
          </mxGeometry>
        </mxCell>
        <mxCell id="PY4G7l2K5pVL9X38_ox1-75" value="" style="image;aspect=fixed;html=1;points=[];align=center;fontSize=12;image=img/lib/azure2/databases/Azure_Database_PostgreSQL_Server.svg;" vertex="1" parent="1">
          <mxGeometry x="454.5" y="880" width="69" height="92" as="geometry" />
        </mxCell>
        <mxCell id="PY4G7l2K5pVL9X38_ox1-76" value="Медиафайлы добавлены" style="rounded=0;whiteSpace=wrap;html=1;" vertex="1" parent="1">
          <mxGeometry x="428" y="1010" width="120" height="40" as="geometry" />
        </mxCell>
        <mxCell id="PY4G7l2K5pVL9X38_ox1-77" value="" style="endArrow=classic;html=1;rounded=0;entryX=0.5;entryY=0;entryDx=0;entryDy=0;exitX=0.486;exitY=1;exitDx=0;exitDy=0;exitPerimeter=0;" edge="1" parent="1" source="PY4G7l2K5pVL9X38_ox1-75" target="PY4G7l2K5pVL9X38_ox1-76">
          <mxGeometry width="50" height="50" relative="1" as="geometry">
            <mxPoint x="390" y="810" as="sourcePoint" />
            <mxPoint x="390.03999999999996" y="848.116" as="targetPoint" />
          </mxGeometry>
        </mxCell>
        <mxCell id="PY4G7l2K5pVL9X38_ox1-78" value="" style="endArrow=classic;html=1;rounded=0;exitX=0;exitY=0.5;exitDx=0;exitDy=0;" edge="1" parent="1" source="PY4G7l2K5pVL9X38_ox1-76">
          <mxGeometry width="50" height="50" relative="1" as="geometry">
            <mxPoint x="390" y="810" as="sourcePoint" />
            <mxPoint x="400" y="440" as="targetPoint" />
            <Array as="points">
              <mxPoint x="400" y="1030" />
            </Array>
          </mxGeometry>
        </mxCell>
        <mxCell id="PY4G7l2K5pVL9X38_ox1-79" value="Выберите альбом" style="rounded=0;whiteSpace=wrap;html=1;" vertex="1" parent="1">
          <mxGeometry x="910" y="570" width="120" height="60" as="geometry" />
        </mxCell>
        <mxCell id="PY4G7l2K5pVL9X38_ox1-80" value="" style="group" vertex="1" connectable="0" parent="1">
          <mxGeometry x="862" y="670" width="230" height="140" as="geometry" />
        </mxCell>
        <mxCell id="PY4G7l2K5pVL9X38_ox1-81" value="Выгружаем в виде кнопок названия альбомов." style="rounded=0;whiteSpace=wrap;html=1;" vertex="1" parent="PY4G7l2K5pVL9X38_ox1-80">
          <mxGeometry width="230" height="50" as="geometry" />
        </mxCell>
        <mxCell id="PY4G7l2K5pVL9X38_ox1-82" value="" style="group" vertex="1" connectable="0" parent="PY4G7l2K5pVL9X38_ox1-80">
          <mxGeometry y="50" width="230" height="90" as="geometry" />
        </mxCell>
        <mxCell id="PY4G7l2K5pVL9X38_ox1-83" value="" style="strokeWidth=1;html=1;shadow=0;dashed=0;shape=mxgraph.android.rect;rounded=1;fillColor=#ccf2ff;strokeColor=#88c5f5;container=0;" vertex="1" parent="PY4G7l2K5pVL9X38_ox1-82">
          <mxGeometry y="30" width="230" height="30" as="geometry" />
        </mxCell>
        <mxCell id="PY4G7l2K5pVL9X38_ox1-84" value="" style="strokeWidth=1;html=1;shadow=0;dashed=0;shape=mxgraph.android.rect;rounded=1;fillColor=#ccf2ff;strokeColor=#88c5f5;container=0;" vertex="1" parent="PY4G7l2K5pVL9X38_ox1-82">
          <mxGeometry y="60" width="230" height="30" as="geometry" />
        </mxCell>
        <mxCell id="PY4G7l2K5pVL9X38_ox1-85" value="" style="strokeWidth=1;html=1;shadow=0;dashed=0;shape=mxgraph.android.rect;rounded=1;fillColor=#ccf2ff;strokeColor=#88c5f5;container=0;" vertex="1" parent="PY4G7l2K5pVL9X38_ox1-82">
          <mxGeometry width="230" height="30" as="geometry" />
        </mxCell>
        <mxCell id="PY4G7l2K5pVL9X38_ox1-86" value="Читерский четверг" style="strokeWidth=1;html=1;shadow=0;dashed=0;shape=mxgraph.android.spinner2;fontStyle=0;fontColor=#666666;align=center;verticalAlign=middle;strokeColor=#cccccc;fillColor=#cccccc;" vertex="1" parent="PY4G7l2K5pVL9X38_ox1-82">
          <mxGeometry x="5.897435897435897" y="4.285714285714286" width="216.23931623931622" height="21.428571428571427" as="geometry" />
        </mxCell>
        <mxCell id="PY4G7l2K5pVL9X38_ox1-87" value="Поездка на каму" style="strokeWidth=1;html=1;shadow=0;dashed=0;shape=mxgraph.android.spinner2;fontStyle=0;fontColor=#666666;align=center;verticalAlign=middle;strokeColor=#cccccc;fillColor=#cccccc;" vertex="1" parent="PY4G7l2K5pVL9X38_ox1-82">
          <mxGeometry x="5.897435897435897" y="34.285714285714285" width="216.23931623931622" height="21.428571428571427" as="geometry" />
        </mxCell>
        <mxCell id="PY4G7l2K5pVL9X38_ox1-88" value="Рыбалка 2019" style="strokeWidth=1;html=1;shadow=0;dashed=0;shape=mxgraph.android.spinner2;fontStyle=0;fontColor=#666666;align=center;verticalAlign=middle;strokeColor=#cccccc;fillColor=#cccccc;" vertex="1" parent="PY4G7l2K5pVL9X38_ox1-82">
          <mxGeometry x="5.897435897435897" y="64.28571428571429" width="216.23931623931622" height="21.428571428571427" as="geometry" />
        </mxCell>
        <mxCell id="PY4G7l2K5pVL9X38_ox1-89" value="" style="endArrow=classic;html=1;rounded=0;entryX=0.5;entryY=0;entryDx=0;entryDy=0;exitX=0.558;exitY=1.033;exitDx=0;exitDy=0;exitPerimeter=0;" edge="1" parent="1" source="PY4G7l2K5pVL9X38_ox1-79" target="PY4G7l2K5pVL9X38_ox1-81">
          <mxGeometry width="50" height="50" relative="1" as="geometry">
            <mxPoint x="390" y="610" as="sourcePoint" />
            <mxPoint x="390.03999999999996" y="648.116" as="targetPoint" />
          </mxGeometry>
        </mxCell>
        <mxCell id="PY4G7l2K5pVL9X38_ox1-90" value="Введите название подальбома" style="rounded=0;whiteSpace=wrap;html=1;" vertex="1" parent="1">
          <mxGeometry x="640" y="690" width="120" height="60" as="geometry" />
        </mxCell>
        <mxCell id="PY4G7l2K5pVL9X38_ox1-91" value="" style="endArrow=classic;html=1;rounded=0;exitX=0;exitY=0.5;exitDx=0;exitDy=0;entryX=1;entryY=0.5;entryDx=0;entryDy=0;entryPerimeter=0;" edge="1" parent="1" source="PY4G7l2K5pVL9X38_ox1-90" target="PY4G7l2K5pVL9X38_ox1-70">
          <mxGeometry width="50" height="50" relative="1" as="geometry">
            <mxPoint x="390" y="710" as="sourcePoint" />
            <mxPoint x="600" y="880" as="targetPoint" />
            <Array as="points" />
          </mxGeometry>
        </mxCell>
        <mxCell id="PY4G7l2K5pVL9X38_ox1-92" value="" style="endArrow=classic;html=1;rounded=0;entryX=1;entryY=0.5;entryDx=0;entryDy=0;exitX=0;exitY=1;exitDx=0;exitDy=0;" edge="1" parent="1" source="PY4G7l2K5pVL9X38_ox1-81" target="PY4G7l2K5pVL9X38_ox1-90">
          <mxGeometry width="50" height="50" relative="1" as="geometry">
            <mxPoint x="390" y="710" as="sourcePoint" />
            <mxPoint x="390.03999999999996" y="748.116" as="targetPoint" />
          </mxGeometry>
        </mxCell>
        <mxCell id="PY4G7l2K5pVL9X38_ox1-93" value="" style="group" vertex="1" connectable="0" parent="1">
          <mxGeometry x="360" y="20" width="80" height="110" as="geometry" />
        </mxCell>
        <mxCell id="PY4G7l2K5pVL9X38_ox1-1" value="" style="verticalLabelPosition=bottom;verticalAlign=top;html=1;shadow=0;dashed=0;strokeWidth=1;shape=mxgraph.android.phone2;strokeColor=#c0c0c0;" vertex="1" parent="PY4G7l2K5pVL9X38_ox1-93">
          <mxGeometry width="80" height="110" as="geometry" />
        </mxCell>
        <mxCell id="PY4G7l2K5pVL9X38_ox1-3" value="START" style="ellipse;whiteSpace=wrap;html=1;" vertex="1" parent="PY4G7l2K5pVL9X38_ox1-93">
          <mxGeometry x="15" y="32.5" width="50" height="45" as="geometry" />
        </mxCell>
      </root>
    </mxGraphModel>
  </diagram>
</mxfile>
